<svg xmlns="http://www.w3.org/2000/svg" viewBox="0 0 24 24"><path fill="#000000" d="M19.4 13a7.6 7.6 0 0 0 .1-1 7.6 7.6 0 0 0-.1-1l2.1-1.7a.5.5 0 0 0 .1-.6l-2-3.5a.5.5 0 0 0-.6-.2l-2.5 1a7.7 7.7 0 0 0-1.7-1l-.4-2.6a.5.5 0 0 0-.5-.4h-4a.5.5 0 0 0-.5.4l-.4 2.6a7.7 7.7 0 0 0-1.7 1l-2.5-1a.5.5 0 0 0-.6.2l-2 3.5a.5.5 0 0 0 .1.6L4.5 11a7.6 7.6 0 0 0 0 2l-2.1 1.7a.5.5 0 0 0-.1.6l2 3.5c.1.2.4.3.6.2l2.5-1a7.7 7.7 0 0 0 1.7 1l.4 2.6c0 .2.2.4.5.4h4c.3 0 .5-.2.5-.4l.4-2.6a7.7 7.7 0 0 0 1.7-1l2.5 1c.2.1.5 0 .6-.2l2-3.5a.5.5 0 0 0-.1-.6L19.4 13zM12 15.5A3.5 3.5 0 1 1 12 8.5a3.5 3.5 0 0 1 0 7z"/></svg>
